<svg xmlns="http://www.w3.org/2000/svg" xmlns:xlink="http://www.w3.org/1999/xlink" width="63.072" height="27.594" viewBox="0 0 63.072 27.594">
  <defs>
    <clipPath id="clip-path">
      <rect id="Rectángulo_972" data-name="Rectángulo 972" width="23.285" height="4.365" fill="#213a7a"/>
    </clipPath>
  </defs>
  <g id="Grupo_3380" data-name="Grupo 3380" transform="translate(-646.457 -742.495)">
    <g id="Google_2015_logo" transform="translate(646.097 742.025)">
      <path id="Trazado_8904" data-name="Trazado 8904" d="M81.577,30.147A5.163,5.163,0,1,1,76.413,25,5.084,5.084,0,0,1,81.577,30.147Zm-2.26,0a2.911,2.911,0,1,0-2.9,3.119A2.964,2.964,0,0,0,79.316,30.147Z" transform="translate(-54.439 -18.838)" fill="#213a7a"/>
      <path id="Trazado_8905" data-name="Trazado 8905" d="M129.577,30.147A5.163,5.163,0,1,1,124.413,25,5.084,5.084,0,0,1,129.577,30.147Zm-2.26,0a2.911,2.911,0,1,0-2.9,3.119A2.964,2.964,0,0,0,127.316,30.147Z" transform="translate(-91.301 -18.838)" fill="#213a7a"/>
      <path id="Trazado_8906" data-name="Trazado 8906" d="M177.1,25.311v9.241c0,3.8-2.242,5.354-4.892,5.354a4.9,4.9,0,0,1-4.562-3.033l1.968-.819a2.843,2.843,0,0,0,2.592,1.826c1.7,0,2.748-1.047,2.748-3.017v-.74h-.079a3.5,3.5,0,0,1-2.71,1.17,5.151,5.151,0,0,1,0-10.292,3.567,3.567,0,0,1,2.71,1.151h.079v-.838H177.1Zm-1.986,4.855a2.9,2.9,0,0,0-2.748-3.137,2.976,2.976,0,0,0-2.866,3.137,2.954,2.954,0,0,0,2.866,3.1A2.877,2.877,0,0,0,175.111,30.166Z" transform="translate(-128.147 -18.838)" fill="#213a7a"/>
      <path id="Trazado_8907" data-name="Trazado 8907" d="M217.7,3V18.084h-2.2V3Z" transform="translate(-165.215 -1.943)" fill="#213a7a"/>
      <path id="Trazado_8908" data-name="Trazado 8908" d="M236.732,31.833,238.486,33a5.123,5.123,0,0,1-4.288,2.281,5.036,5.036,0,0,1-5.108-5.147,4.891,4.891,0,0,1,4.855-5.147,4.78,4.78,0,0,1,4.4,3.274l.234.585L231.7,31.7a2.62,2.62,0,0,0,2.495,1.559,2.938,2.938,0,0,0,2.534-1.425Zm-5.4-1.852,4.6-1.91a1.993,1.993,0,0,0-1.91-1.091A2.823,2.823,0,0,0,231.332,29.982Z" transform="translate(-175.651 -18.83)" fill="#213a7a"/>
      <path id="Trazado_8909" data-name="Trazado 8909" d="M8.466,9.97V7.787h7.359A7.235,7.235,0,0,1,15.933,9.1a7.211,7.211,0,0,1-1.891,5.108,7.308,7.308,0,0,1-5.574,2.242A8.1,8.1,0,0,1,.36,8.462,8.1,8.1,0,0,1,8.468.47a7.615,7.615,0,0,1,5.477,2.2L12.4,4.213A5.566,5.566,0,0,0,8.466,2.654,5.733,5.733,0,0,0,2.734,8.462,5.733,5.733,0,0,0,8.466,14.27a5.347,5.347,0,0,0,4.035-1.6,4.526,4.526,0,0,0,1.183-2.7Z" fill="#213a7a"/>
    </g>
    <g id="Grupo_3379" data-name="Grupo 3379" transform="translate(8.589 -3.882)">
      <g id="Grupo_2019" data-name="Grupo 2019" transform="translate(690.022 770.011)">
        <path id="Icon_feather-star" data-name="Icon feather-star" d="M4.819,3l.562,1.139,1.257.184-.909.886.215,1.251L4.819,5.868l-1.124.591.215-1.251L3,4.322l1.257-.184Z" transform="translate(-3 -3)" fill="#213a7a" stroke="#213a7a" stroke-linecap="round" stroke-linejoin="round" stroke-width="1"/>
      </g>
      <g id="Grupo_2011" data-name="Grupo 2011" transform="translate(669.679 770.011)">
        <path id="Icon_feather-star-2" data-name="Icon feather-star" d="M4.819,3l.562,1.139,1.257.184-.909.886.215,1.251L4.819,5.868l-1.124.591.215-1.251L3,4.322l1.257-.184Z" transform="translate(-3 -3)" fill="#213a7a" stroke="#213a7a" stroke-linecap="round" stroke-linejoin="round" stroke-width="1"/>
      </g>
      <g id="Grupo_2017" data-name="Grupo 2017" transform="translate(676.46 770.011)">
        <path id="Icon_feather-star-3" data-name="Icon feather-star" d="M4.819,3l.562,1.139,1.257.184-.909.886.215,1.251L4.819,5.868l-1.124.591.215-1.251L3,4.322l1.257-.184Z" transform="translate(-3 -3)" fill="#213a7a" stroke="#213a7a" stroke-linecap="round" stroke-linejoin="round" stroke-width="1"/>
      </g>
      <g id="Grupo_2018" data-name="Grupo 2018" transform="translate(683.241 770.011)">
        <path id="Icon_feather-star-4" data-name="Icon feather-star" d="M4.819,3l.562,1.139,1.257.184-.909.886.215,1.251L4.819,5.868l-1.124.591.215-1.251L3,4.322l1.257-.184Z" transform="translate(-3 -3)" fill="#213a7a" stroke="#213a7a" stroke-linecap="round" stroke-linejoin="round" stroke-width="1"/>
      </g>
      <g id="Grupo_2020" data-name="Grupo 2020" transform="translate(696.803 770.011)">
        <path id="Icon_feather-star-5" data-name="Icon feather-star" d="M4.819,3l.562,1.139,1.257.184-.909.886.215,1.251L4.819,5.868l-1.124.591.215-1.251L3,4.322l1.257-.184Z" transform="translate(-3 -3)" fill="#213a7a" stroke="#213a7a" stroke-linecap="round" stroke-linejoin="round" stroke-width="1"/>
      </g>
    </g>
    <g id="Grupo_3378" data-name="Grupo 3378" transform="translate(646.458 765.676)">
      <g id="Grupo_3377" data-name="Grupo 3377" transform="translate(2 0)" clip-path="url(#clip-path)">
        <path id="Trazado_8910" data-name="Trazado 8910" d="M0,4.295V0H1.825a3.112,3.112,0,0,1,1,.116.985.985,0,0,1,.5.411,1.237,1.237,0,0,1,.187.676,1.146,1.146,0,0,1-.284.8,1.365,1.365,0,0,1-.85.4,2.023,2.023,0,0,1,.464.36,4.871,4.871,0,0,1,.493.7l.524.838H2.824L2.2,3.36a6.061,6.061,0,0,0-.457-.631.663.663,0,0,0-.26-.178A1.421,1.421,0,0,0,1.043,2.5H.867V4.295ZM.867,1.816h.641a3.33,3.33,0,0,0,.779-.052.468.468,0,0,0,.243-.182.559.559,0,0,0,.088-.322A.513.513,0,0,0,2.5.91.528.528,0,0,0,2.176.741q-.1-.015-.632-.015H.867Z" transform="translate(0 0)" fill="#213a7a"/>
        <path id="Trazado_8911" data-name="Trazado 8911" d="M10.21,4.417l.82.137a1.344,1.344,0,0,1-.5.687,1.466,1.466,0,0,1-.854.236,1.393,1.393,0,0,1-1.2-.53,1.784,1.784,0,0,1-.307-1.072,1.719,1.719,0,0,1,.4-1.211,1.332,1.332,0,0,1,1.022-.438,1.381,1.381,0,0,1,1.1.458,2.031,2.031,0,0,1,.384,1.4H9.012a.83.83,0,0,0,.2.569.623.623,0,0,0,.474.2.507.507,0,0,0,.325-.105.651.651,0,0,0,.2-.34m.047-.832a.794.794,0,0,0-.184-.543.594.594,0,0,0-.873.01.757.757,0,0,0-.173.533Z" transform="translate(-4.084 -1.113)" fill="#213a7a"/>
        <path id="Trazado_8912" data-name="Trazado 8912" d="M15.779,5.478,14.525,2.367h.864l.586,1.588.169.53q.067-.2.085-.267.041-.131.088-.263l.592-1.588h.846L16.52,5.478Z" transform="translate(-7.263 -1.184)" fill="#213a7a"/>
        <path id="Trazado_8913" data-name="Trazado 8913" d="M22,0h.823V.761H22Zm0,1.183h.823V4.295H22Z" transform="translate(-10.998 0)" fill="#213a7a"/>
        <path id="Trazado_8914" data-name="Trazado 8914" d="M26.891,4.417l.82.137a1.344,1.344,0,0,1-.5.687,1.466,1.466,0,0,1-.854.236,1.393,1.393,0,0,1-1.2-.53,1.784,1.784,0,0,1-.307-1.072,1.719,1.719,0,0,1,.4-1.211,1.332,1.332,0,0,1,1.022-.438,1.381,1.381,0,0,1,1.1.458,2.031,2.031,0,0,1,.384,1.4H25.693a.83.83,0,0,0,.2.569.623.623,0,0,0,.474.2.507.507,0,0,0,.325-.105.651.651,0,0,0,.2-.34m.047-.832a.794.794,0,0,0-.184-.543.594.594,0,0,0-.873.01.757.757,0,0,0-.173.533Z" transform="translate(-12.425 -1.113)" fill="#213a7a"/>
        <path id="Trazado_8915" data-name="Trazado 8915" d="M32.18,5.478,31.2,2.367H32l.583,2.039.536-2.039h.794l.518,2.039.595-2.039h.811l-1,3.111h-.791l-.536-2-.527,2Z" transform="translate(-15.598 -1.184)" fill="#213a7a"/>
        <path id="Trazado_8916" data-name="Trazado 8916" d="M40.758,4.52l.826-.126a.608.608,0,0,0,.214.365.723.723,0,0,0,.451.124.814.814,0,0,0,.48-.117.261.261,0,0,0,.108-.219.217.217,0,0,0-.059-.155.662.662,0,0,0-.275-.108,4.444,4.444,0,0,1-1.262-.4.8.8,0,0,1-.369-.7.862.862,0,0,1,.319-.679,1.492,1.492,0,0,1,.99-.275,1.729,1.729,0,0,1,.949.208,1.065,1.065,0,0,1,.428.615l-.776.143a.484.484,0,0,0-.189-.278.691.691,0,0,0-.4-.1.9.9,0,0,0-.466.09.2.2,0,0,0-.094.167.181.181,0,0,0,.082.149,3.064,3.064,0,0,0,.769.231,2.29,2.29,0,0,1,.918.366.761.761,0,0,1,.257.612.941.941,0,0,1-.357.735,1.584,1.584,0,0,1-1.058.307,1.734,1.734,0,0,1-1.006-.258,1.186,1.186,0,0,1-.485-.7" transform="translate(-20.379 -1.113)" fill="#213a7a"/>
      </g>
    </g>
  </g>
</svg>
