<svg xmlns="http://www.w3.org/2000/svg" width="74.867" height="28.061" viewBox="0 0 74.867 28.061">
  <g id="Grupo_3381" data-name="Grupo 3381" transform="translate(-924.095 -722.953)">
    <path id="path817" d="M99.71,24.229l1.223-.278c.026-.006.069-.015.12-.032a1.323,1.323,0,0,0,.965-1.577l0-.021a1.311,1.311,0,0,0-.208-.446,1.7,1.7,0,0,0-.5-.42,4.662,4.662,0,0,0-.709-.322l-1.341-.481c-.752-.275-1.5-.542-2.265-.8-.492-.172-.909-.323-1.272-.434q-.1-.028-.205-.062a3.646,3.646,0,0,0-1.007-.188,1.218,1.218,0,0,0-.508.091,1.3,1.3,0,0,0-.442.308,2.645,2.645,0,0,0-.173.214,2.5,2.5,0,0,0-.257.5,6.715,6.715,0,0,0-.367,2.242,4.238,4.238,0,0,0,.41,2.172,1.287,1.287,0,0,0,.366.39,1.581,1.581,0,0,0,.842.231,4.34,4.34,0,0,0,1.267-.169l4.062-.921Zm13.642-6.371A6.818,6.818,0,0,0,112.024,16a2.034,2.034,0,0,0-.226-.191,1.955,1.955,0,0,0-.481-.27,1.316,1.316,0,0,0-.533-.087,1.232,1.232,0,0,0-.5.138,3.632,3.632,0,0,0-.821.6c-.046.045-.1.1-.157.145-.276.255-.584.571-.951.937-.567.562-1.124,1.127-1.679,1.7l-.992,1.01a4.556,4.556,0,0,0-.493.595,1.658,1.658,0,0,0-.262.593,1.335,1.335,0,0,0,.012.492l0,.021a1.349,1.349,0,0,0,1.57,1q.062-.009.123-.023l5.286-1.2a4.3,4.3,0,0,0,1.214-.4,1.541,1.541,0,0,0,.654-.569,1.265,1.265,0,0,0,.155-.509,4.227,4.227,0,0,0-.6-2.131Zm-9.463,2.182a3.038,3.038,0,0,0,.416-1.753c.116-1.923.237-3.846.334-5.77a19.719,19.719,0,0,0,.072-2.182,3.159,3.159,0,0,0-.43-1.8c-.688-.877-2.155-.8-3.156-.668q-.463.063-.918.17c-.3.071-.607.149-.9.243-.961.308-2.311.875-2.539,1.962a3.166,3.166,0,0,0,.413,1.8,19.981,19.981,0,0,0,1.037,1.93c.946,1.688,1.908,3.366,2.868,5.046a3.109,3.109,0,0,0,1.154,1.4c.037.015.075.029.113.041a1.367,1.367,0,0,0,.779.051l.046-.01a1.36,1.36,0,0,0,.626-.369c.031-.029.06-.058.088-.09Zm-.459,5.149a1.235,1.235,0,0,0-1.361-.45,1.26,1.26,0,0,0-.169.068,1.645,1.645,0,0,0-.241.147,3.144,3.144,0,0,0-.575.577,1.391,1.391,0,0,1-.133.17l-.851,1.147c-.481.644-.958,1.289-1.428,1.943-.308.423-.574.781-.785,1.1-.039.06-.081.125-.118.179a3.5,3.5,0,0,0-.468.91,1.168,1.168,0,0,0-.051.513,1.292,1.292,0,0,0,.181.507c.051.077.106.152.165.225a2.579,2.579,0,0,0,.427.386,7.511,7.511,0,0,0,1.905.912,6.842,6.842,0,0,0,1.738.326,2.261,2.261,0,0,0,.3-.006q.139-.013.277-.039a2.681,2.681,0,0,0,.271-.077,1.32,1.32,0,0,0,.462-.289,1.176,1.176,0,0,0,.281-.433,3.527,3.527,0,0,0,.206-1c0-.065.013-.142.02-.212.033-.376.049-.819.073-1.338.042-.8.075-1.594.1-2.392l.055-1.419a3.311,3.311,0,0,0-.09-1.013,1.5,1.5,0,0,0-.194-.441Zm9.6,2.22a3.587,3.587,0,0,0-.825-.617c-.057-.032-.125-.073-.187-.11-.33-.2-.728-.4-1.192-.648-.714-.386-1.428-.76-2.15-1.132l-1.274-.663a1.458,1.458,0,0,1-.2-.1,3.216,3.216,0,0,0-.774-.271,1.67,1.67,0,0,0-.281-.029,1.451,1.451,0,0,0-.183.011,1.214,1.214,0,0,0-1.021.992,1.519,1.519,0,0,0,.019.476,3.316,3.316,0,0,0,.37.95l.68,1.252c.379.706.762,1.407,1.155,2.107.253.456.465.846.662,1.17.037.061.08.126.112.183a3.655,3.655,0,0,0,.629.81,1.239,1.239,0,0,0,.99.328,2.678,2.678,0,0,0,.278-.048,2.6,2.6,0,0,0,.541-.209,6.736,6.736,0,0,0,1.417-1.041,7.372,7.372,0,0,0,1.308-1.641,1.931,1.931,0,0,0,.126-.27,2.7,2.7,0,0,0,.085-.261,2.592,2.592,0,0,0,.047-.273,1.269,1.269,0,0,0-.062-.533,1.181,1.181,0,0,0-.275-.44Z" transform="translate(885.001 715.168)" fill="#213a7a"/>
    <path id="path819" d="M33.163,18.971A1.89,1.89,0,0,1,35.051,17.1a1.933,1.933,0,0,1,1.89,1.889V33.614a1.9,1.9,0,0,1-3.232,1.324,1.837,1.837,0,0,1-.546-1.324Zm-1.757,9.035a1.888,1.888,0,0,1-.471,1.22,1.866,1.866,0,0,1-1.3.522q-2.026.012-4.051.014t-4.051.014a3.383,3.383,0,0,0,.885,1.424,3.668,3.668,0,0,0,.768.552,2.874,2.874,0,0,0,1.416.392,4.44,4.44,0,0,0,2.023-.552l.052-.027a5.043,5.043,0,0,1,1.379-.54,1.649,1.649,0,0,1,1.343.335,1.4,1.4,0,0,1,.458,1.5,2.845,2.845,0,0,1-1.313,1.525,6.548,6.548,0,0,1-1.033.479,7.928,7.928,0,0,1-2.848.437,6.441,6.441,0,0,1-.739-.029,6.817,6.817,0,0,1-.782-.146,5.62,5.62,0,0,1-1.182-.392,6.5,6.5,0,0,1-1.077-.6,7.01,7.01,0,0,1-.944-.8,7.207,7.207,0,0,1-.783-.958A6.779,6.779,0,0,1,18.063,28.3a7.032,7.032,0,0,1,1.388-3.922,3.108,3.108,0,0,1,.3-.377c.044-.05.087-.1.128-.147a5.922,5.922,0,0,1,3.052-1.835l.032-.01a6.74,6.74,0,0,1,3.616,0,7.1,7.1,0,0,1,3.085,1.845,5.693,5.693,0,0,1,.428.523,6.864,6.864,0,0,1,1.134,2.331l0,.008a4.794,4.794,0,0,1,.177,1.292Zm-8.664-2.4a3.263,3.263,0,0,0-1.151,1.83h6.435a3.363,3.363,0,0,0-1.166-1.831,3.4,3.4,0,0,0-2.066-.726,3.348,3.348,0,0,0-2.053.726Zm24.472-3.85a5.807,5.807,0,0,0-4.31,1.947v-.044a1.883,1.883,0,0,0-3.764.1v13.96a1.833,1.833,0,0,0,.551,1.316,1.919,1.919,0,0,0,2.678,0,1.833,1.833,0,0,0,.55-1.315V33.366a5.835,5.835,0,0,0,4.31,1.947c3.381,0,6.126-3.008,6.126-6.756s-2.76-6.8-6.141-6.8Zm-.826,10.517a3.7,3.7,0,1,1,3.483-3.689A3.588,3.588,0,0,1,46.388,32.277ZM15.229,29.531l-.62,1.337c-.281.58-.562,1.176-.827,1.772l-.256.559c-1.181,2.576-2.58,5.634-5.633,6.282-1.476.32-3.7-.116-4.532-1.482A1.755,1.755,0,0,1,5.34,35.4a3.358,3.358,0,0,1,.742.295,2.026,2.026,0,0,0,1.281.315A1.839,1.839,0,0,0,8.4,35.24,3.6,3.6,0,0,0,9.162,33.8l-.022-.05q-.01-.026-.023-.051c-.384-.7-.72-1.332-1-1.858q-.236-.445-.476-.888L7,29.756c-.471-.877-.55-1.022-.758-1.4q-.689-1.276-1.447-2.513c-.546-.9-1.107-1.9-.649-2.964a1.815,1.815,0,0,1,2.214-1.016c.95.282,1.371,1.17,1.764,2,.072.15.141.3.214.441.634,1.235,1.254,2.47,1.874,3.7.055.122.138.289.24.494.09.181.2.392.306.625l.164.335c.064.131.12.243.161.333q.432-1.056.87-2.106t.871-2.106A4.526,4.526,0,0,1,13,25.164c.087-.192.2-.438.321-.717l.125-.3c.383-.916.845-2.018,1.868-2.318a1.839,1.839,0,0,1,1.993.683,1.8,1.8,0,0,1,.324,1,5.734,5.734,0,0,1-.693,2.308c-.079.174-.155.339-.221.5l-.039.085c-.09.2-.336.739-.758,1.629-.152.318-.3.638-.447.961Z" transform="translate(920.999 711.43)" fill="#213a7a" fill-rule="evenodd"/>
  </g>
</svg>
