<svg xmlns="http://www.w3.org/2000/svg" width="182" height="71" class="hidden md:block my-[-30px] brightness-[200] lg:brightness-[1]"><g data-name="Grupo 3174"><path fill="#fff" d="M0 0h182v71H0z" data-name="Rect\xE1ngulo 934" opacity=".004"/><g fill="#095590" data-name="Grupo 1"><path d="M17.964 17.694v18.1h7.981v-6.851h3.683v6.725h7.981V17.694h-7.981v6.481h-3.561v-6.481Z" data-name="Trazado 1"/><path d="M38.591 35.546V22.218s.737-5.38 9.945-5.38 9.822 4.769 9.822 4.769v13.817h-7.734l.108-11.578a1.874 1.874 0 0 0-2.072-1.995c-2.256 0-2.026 1.766-2.026 2.476 0 .55.019 1.6.019 1.6l2.214-.042.039 5.136H46.45v4.524Z" data-name="Trazado 2"/><path d="M112.199 17.679v17.974h15.424v-5.227h-7.965v-1.88h7.735v-4.035h-7.781v-1.926h7.873v-4.952Z" data-name="Trazado 3"/><path d="M59.587 17.694h9.333l3.07 6.725 3.683-6.725h8.595v17.974h-6.63V27.72l-3.315 8.07-3.806-.122-3.438-7.7.123 7.581h-7.367Z" data-name="Trazado 4"/><path d="M85.862 17.694h9.331l3.07 6.725 3.683-6.725h8.595v17.974h-6.63V27.72l-3.315 8.07-3.806-.122-3.438-7.7.123 7.581h-7.367Z" data-name="Trazado 5"/><path d="M146.174 29.335s2.734-.738 2.734-5.7-3.275-6.022-3.275-6.022h-16.708l.048 17.963 7.879.047.143-4.349 3.133 4.254h9.873Zm-6.81-3.5h-3.123v-3.782h3.074s1.48.082 1.48 1.985c.002 1.78-1.431 1.796-1.431 1.796Z" data-name="Trazado 6"/></g><text fill="#095590" font-family="Inter-Regular, Inter" font-size="17" transform="translate(73 52.662)"><tspan x="0" y="0">Insurance</tspan></text></g></svg>